<svg id="Grupo_3" data-name="Grupo 3" xmlns="http://www.w3.org/2000/svg" width="898.74" height="216.21" viewBox="0 0 898.74 216.21">
  <path id="Caminho_2" data-name="Caminho 2" d="M67.53,0l47.61,148.39L162.6,0h67.68V213.28H178.72v-49.8L183.7,61.53,132.14,213.29h-34L46.44,61.38l4.98,102.1v49.8H0V0Z" fill="#2d2e32"/>
  <path id="Caminho_3" data-name="Caminho 3" d="M425.21,122.75H344.35v50.98h95.51v39.55H292.94V0H440.16V39.7h-95.8V84.67h80.86v38.08Z" fill="#2d2e32"/>
  <path id="Caminho_4" data-name="Caminho 4" d="M668.94,213.28H617.82L542.23,80.57V213.28H490.81V0h51.42l75.44,132.71V0h51.27Z" fill="#2d2e32"/>
  <path id="Caminho_5" data-name="Caminho 5" d="M898.74,0V139.6q0,23.73-10.11,41.09a65.5,65.5,0,0,1-29,26.44q-18.9,9.09-44.68,9.08-38.97,0-61.38-20.21t-22.85-55.37V0h51.71V141.65q.885,35.01,32.52,35.01,15.96,0,24.17-8.79t8.2-28.56V0Z" fill="#2d2e32"/>
</svg>
