<?xml version="1.0" encoding="utf-8"?>
<!-- Generator: Adobe Illustrator 24.0.0, SVG Export Plug-In . SVG Version: 6.00 Build 0)  -->
<svg version="1.1" id="Camada_1" xmlns="http://www.w3.org/2000/svg" xmlns:xlink="http://www.w3.org/1999/xlink" x="0px" y="0px"
	 viewBox="0 0 10.6 176.4" style="enable-background:new 0 0 10.6 176.4;" xml:space="preserve">
<style type="text/css">
	.st0{fill:#1E1E1E;}
	.st1{fill:#1E1E1E;stroke:#1E1E1E;stroke-miterlimit:10;}
</style>
<title>scroll</title>
<rect id="Retângulo_80" x="4.3" y="107.8" class="st0" width="2" height="69.3"/>
<g>
	<path class="st1" d="M7.1,89.2c-0.1,0-0.2,0-0.3,0.1c-0.1,0.1-0.2,0.1-0.3,0.3c-0.1,0.2-0.2,0.3-0.2,0.5S6.1,90.5,6,90.8
		c-0.1,0.4-0.2,0.7-0.3,1s-0.2,0.6-0.4,0.8C5.1,92.8,5,93,4.8,93.1s-0.4,0.1-0.6,0.1c-0.3,0-0.5-0.1-0.7-0.2
		c-0.2-0.1-0.4-0.3-0.6-0.5S2.6,92,2.5,91.7s-0.1-0.6-0.1-1s0.1-0.7,0.2-1.1C2.7,89.2,2.8,89,3,88.8s0.4-0.4,0.6-0.5
		s0.4-0.1,0.7-0.1v1.1c-0.1,0-0.3,0-0.4,0.1c-0.1,0.1-0.2,0.2-0.3,0.3S3.4,90,3.4,90.2s-0.1,0.4-0.1,0.6s0,0.4,0.1,0.6
		s0.1,0.3,0.2,0.4c0.1,0.1,0.2,0.2,0.3,0.3s0.2,0.1,0.4,0.1c0.1,0,0.2,0,0.3-0.1C4.7,92,4.8,92,4.9,91.9C5,91.8,5,91.6,5.1,91.4
		s0.1-0.4,0.2-0.7c0.1-0.4,0.2-0.7,0.3-1s0.2-0.6,0.4-0.8c0.2-0.2,0.3-0.4,0.5-0.5s0.4-0.2,0.7-0.2c0.3,0,0.5,0.1,0.8,0.2
		c0.2,0.1,0.4,0.3,0.6,0.5s0.3,0.5,0.4,0.8s0.1,0.7,0.1,1c0,0.4-0.1,0.8-0.2,1.1c-0.1,0.3-0.3,0.6-0.5,0.9S8,93.1,7.7,93.2
		c-0.3,0.1-0.5,0.2-0.8,0.2v-1.1c0.2,0,0.4-0.1,0.6-0.2c0.2-0.1,0.3-0.2,0.4-0.4s0.2-0.3,0.2-0.5S8,90.9,8,90.7
		c0-0.5-0.1-0.8-0.3-1.1C7.5,89.3,7.4,89.2,7.1,89.2z"/>
	<path class="st1" d="M8,73.1c0-0.2,0-0.4-0.1-0.6s-0.1-0.3-0.3-0.4c-0.2-0.1-0.2-0.3-0.4-0.3s-0.3-0.1-0.5-0.1v-1
		c0.3,0,0.5,0.1,0.8,0.2s0.5,0.3,0.7,0.6c0.2,0.3,0.3,0.5,0.5,0.8s0.2,0.6,0.2,1c0,0.5-0.1,0.9-0.3,1.3s-0.4,0.7-0.7,0.9
		c-0.3,0.2-0.6,0.4-1,0.5s-0.8,0.2-1.2,0.2H5.5c-0.4,0-0.8-0.1-1.2-0.2c-0.4-0.1-0.7-0.3-1-0.5S2.8,75,2.6,74.6s-0.3-0.8-0.3-1.3
		c0-0.4,0.1-0.7,0.2-1s0.3-0.6,0.5-0.8c0.2-0.2,0.4-0.4,0.7-0.5s0.6-0.2,0.9-0.2v1c-0.2,0-0.4,0-0.5,0.1s-0.3,0.2-0.4,0.3
		s-0.2,0.3-0.3,0.5s-0.1,0.4-0.1,0.6c0,0.3,0.1,0.6,0.2,0.8c0.1,0.2,0.3,0.4,0.5,0.6c0.2,0.2,0.5,0.2,0.7,0.3s0.5,0.1,0.8,0.1h0.2
		c0.3,0,0.6,0,0.8-0.1c0.2-0.1,0.5-0.2,0.7-0.3s0.4-0.3,0.5-0.6C7.8,73.8,8,73.5,8,73.1z"/>
	<path class="st1" d="M2.3,54.1c0-0.1,0-0.2,0-0.3s0-0.2,0-0.3s0-0.2,0-0.3s0-0.2,0.1-0.2l1.1,0.1c0,0.2-0.1,0.4-0.1,0.6
		s0,0.4,0,0.6c0,0.5,0.1,0.9,0.3,1.2c0.2,0.3,0.6,0.5,1,0.7h4.1v1.1H2.4v-1l1-0.1c-0.3-0.3-0.6-0.6-0.8-0.9S2.3,54.5,2.3,54.1z"/>
	<path class="st1" d="M5.5,40.9c-0.5,0-0.9-0.1-1.3-0.2s-0.7-0.3-1-0.6c-0.3-0.3-0.5-0.5-0.7-0.9S2.3,38.4,2.3,38
		c0-0.4,0.1-0.9,0.2-1.2c0.1-0.3,0.4-0.7,0.7-0.9c0.3-0.2,0.6-0.4,1-0.6s0.9-0.1,1.3-0.1h0.1c0.5,0,0.9,0.1,1.3,0.2
		c0.4,0.1,0.7,0.3,1,0.6c0.3,0.2,0.5,0.5,0.7,0.9s0.2,0.8,0.2,1.2S8.7,39,8.6,39.3c-0.1,0.3-0.4,0.6-0.6,0.9c-0.3,0.2-0.6,0.4-1,0.6
		S6.2,41,5.7,41L5.5,40.9L5.5,40.9z M5.7,39.8c0.3,0,0.6,0,0.9-0.1s0.5-0.2,0.7-0.3s0.4-0.3,0.5-0.6C7.9,38.5,8,38.3,8,38
		c0-0.3-0.1-0.6-0.2-0.8c-0.1-0.2-0.3-0.4-0.5-0.6s-0.5-0.3-0.7-0.3s-0.6,0-0.9,0H5.5c-0.3,0-0.6,0-0.9,0.1s-0.5,0.2-0.7,0.3
		S3.5,37,3.4,37.3c-0.1,0.3-0.2,0.5-0.2,0.8s0.1,0.6,0.2,0.8c0.1,0.2,0.3,0.4,0.5,0.6c0.2,0.2,0.5,0.3,0.7,0.3s0.6,0.1,0.9,0.1h0.2
		V39.8z"/>
	<path class="st1" d="M-0.2,22.9v-3.2h8.1v-2.1h0.9v5.3h-1v-2.2H0.7v2.2H-0.2z"/>
	<path class="st1" d="M-0.2,5.3V2.1h8.1V0h0.9v5.3h-1V3.1H0.7v2.2C0.7,5.3-0.2,5.3-0.2,5.3z"/>
</g>
</svg>
